<svg xmlns="http://www.w3.org/2000/svg" width="74.192" height="68.594" viewBox="0 0 74.192 68.594">
    <path fill="none" stroke="#000" stroke-linecap="round" stroke-miterlimit="10" stroke-width="3px" d="M240.731 59.487c11.2.147 23.013-2.091 32.707-7.9A38.3 38.3 0 0 0 287.3 37.068c1.918-3.69 2.683-8.805.794-12.659-2.557-5.212-8.964-5.507-13.369-2.435a21.724 21.724 0 0 0-7.952 10.873c-3.3 10.759-2.889 25.321 5.407 33.822a17.364 17.364 0 0 0 9.82 5.044c11.466 1.765 24.774-9.1 26.986-20.224 1.4-7.017-4.665-10.864-10.572-6.96-8.935 5.906-10.752 18.634-8.388 28.349 2.589 10.638 11.237 14.387 21.577 11.983" transform="translate(-239.211 -18.486)"/>
</svg>
