<svg xmlns="http://www.w3.org/2000/svg" width="741.903" height="685.807" viewBox="0 0 741.903 685.807">
    <path fill="none" stroke="#000" stroke-linecap="round" stroke-miterlimit="10" stroke-width="30px" d="M240.731 414.861c111.977 1.47 230.124-20.909 327.061-79.038 56.188-33.689 108.308-86.967 138.566-145.146 19.179-36.9 26.829-88.048 7.939-126.586-25.568-52.119-89.637-55.069-133.685-24.349-35.889 25.019-66.678 66.868-79.518 108.727-33.009 107.587-28.889 253.2 54.068 338.21a173.633 173.633 0 0 0 98.247 50.439c114.657 17.649 247.733-90.987 269.852-202.234 13.95-70.168-46.648-108.637-105.717-69.6-89.344 59.06-107.516 186.336-83.877 283.483 25.889 106.377 112.367 143.866 215.764 119.827" transform="translate(-225.535 -4.98)"/>
</svg>
