<svg xmlns="http://www.w3.org/2000/svg" width="28" height="24" viewBox="0 0 28 24">
    <g fill="none">
        <path stroke="#d9d9d9" stroke-linecap="round" stroke-miterlimit="10" stroke-width="1.83px" d="M240.731 32.235a19.383 19.383 0 0 0 10.135-2.449 11.869 11.869 0 0 0 4.294-4.5 4.583 4.583 0 0 0 .246-3.923 2.741 2.741 0 0 0-4.142-.755 6.731 6.731 0 0 0-2.464 3.369c-1.023 3.334-.9 7.846 1.675 10.48a5.38 5.38 0 0 0 3.044 1.563c3.553.547 7.676-2.819 8.362-6.267.432-2.174-1.445-3.366-3.276-2.157-2.769 1.83-3.332 5.774-2.6 8.784.8 3.3 3.482 4.458 6.686 3.713" transform="translate(1449 -214) translate(-1686.231 195.5)"/>
        <path d="M0 0H28V24H0z" transform="translate(1449 -214) translate(-1449 214)"/>
    </g>
</svg>
