<svg xmlns="http://www.w3.org/2000/svg" width="23.014" height="23.014" viewBox="0 0 23.014 23.014">
    <g>
        <path fill="none" stroke="#d9d9d9" stroke-width="1.5px" d="M60.757-38A10.761 10.761 0 0 0 50-27.243a10.761 10.761 0 0 0 10.757 10.757 10.761 10.761 0 0 0 10.757-10.757A10.761 10.761 0 0 0 60.757-38zm0 3.227a3.223 3.223 0 0 1 3.227 3.227 3.223 3.223 0 0 1-3.227 3.227 3.223 3.223 0 0 1-3.227-3.227 3.223 3.223 0 0 1 3.227-3.227zm0 15.275a7.745 7.745 0 0 1-6.457-3.464c.032-2.141 4.3-3.313 6.454-3.313s6.422 1.172 6.454 3.313a7.745 7.745 0 0 1-6.451 3.462z" transform="translate(-287.75 -599.75) translate(238.5 638.5)"/>
    </g>
</svg>
