<svg xmlns="http://www.w3.org/2000/svg" width="23.858" height="22.092" viewBox="0 0 23.858 22.092">
    <path fill="none" stroke="#d9d9d9" stroke-linecap="round" stroke-miterlimit="10" stroke-width="1.6px" d="M240.731 32.306a19.5 19.5 0 0 0 10.193-2.463 11.937 11.937 0 0 0 4.319-4.524 4.609 4.609 0 0 0 .247-3.945 2.757 2.757 0 0 0-4.166-.759A6.77 6.77 0 0 0 248.846 24c-1.029 3.353-.9 7.891 1.685 10.541a5.412 5.412 0 0 0 3.062 1.572c3.573.55 7.721-2.836 8.41-6.3.435-2.187-1.454-3.386-3.295-2.169-2.785 1.841-3.351 5.807-2.614 8.835.807 3.315 3.5 4.484 6.725 3.735" transform="translate(-239.921 -19.195)"/>
</svg>
